<svg xmlns="http://www.w3.org/2000/svg" xmlns:svg="http://www.w3.org/2000/svg" id="svg18" width="148.813" height="123.295" class="looka-1j8o68f" version="1.1" viewBox="0 0 148.813 123.295" xml:space="preserve"><g id="g17612"><g id="g17545"><path style="fill:#000;fill-opacity:1;fill-rule:evenodd;stroke:#fff;stroke-width:1.5;stroke-linecap:round;stroke-linejoin:round;stroke-miterlimit:3;stroke-dasharray:none;stroke-opacity:1" id="path11628" d="M 74.47184,122.54523 C 55.853,120.6974 35.99244,114.71047 43.69128,81.895779 42.12342,81.447198 40.42543,81.99634 38.5904,83.596074 L 34.90643,93.703382 C 16.14824,106.53704 5.993618,102.53228 4.867882,80.85671 5.57092,70.640316 12.48809,62.15007 17.33671,53.085226 15.85762,50.303262 14.58342,47.361935 10.913375,46.284046 L 1.750674,48.456645 C -2.640544,30.150642 7.962893,12.597124 23.23328,5.892327 27.45399,4.0391323 39.15377,-0.4698772 42.969,1.0754535 L 42.84318,2.2347656 24.38264,22.007614 c 1.96906,3.81797 2.52633,7.901517 9.01241,10.768534 25.08259,-19.862752 32.36738,-13.003624 23.6987,17.50865 -0.0954,4.471146 -1.93088,8.908895 2.18357,13.380041 6.5066,-0.930178 10.49411,-6.583642 15.11373,-11.051917"/><path style="fill:#000;fill-opacity:1;fill-rule:evenodd;stroke:#fff;stroke-width:1.5;stroke-linecap:round;stroke-linejoin:round;stroke-miterlimit:3;stroke-dasharray:none;stroke-opacity:1" id="path12356" d="m 74.34125,122.54523 c 18.61884,-1.84783 38.4794,-7.83476 30.78056,-40.649451 1.56786,-0.448581 3.26585,0.100561 5.10088,1.700295 l 3.68397,10.107308 c 18.75819,12.833658 28.91281,8.828898 30.03855,-12.846672 -0.70304,-10.216394 -7.62021,-18.70664 -12.46883,-27.771484 1.47909,-2.781964 2.75329,-5.723291 6.42334,-6.80118 l 9.1627,2.172599 C 151.45363,30.150642 140.8502,12.597124 125.57981,5.892327 121.3591,4.0391323 109.65932,-0.4698772 105.84409,1.0754535 l 0.12582,1.1593121 18.46054,19.7728484 c -1.96906,3.81797 -2.52633,7.901517 -9.01241,10.768534 -25.08259,-19.862752 -32.36738,-13.003624 -23.6987,17.50865 0.0954,4.471146 1.93088,8.908895 -2.18357,13.380041 -6.5066,-0.930178 -10.49411,-6.583642 -15.11373,-11.051917"/><path style="fill:#e63259;fill-opacity:1;fill-rule:evenodd;stroke:#029dd3;stroke-width:2;stroke-linecap:round;stroke-linejoin:round;stroke-miterlimit:3;stroke-dasharray:none;stroke-opacity:1" id="path12418" d="m 74.20467,81.41217 h 3.2729 v 9.08397 c 2.75404,3.28263 4.64762,6.98245 13.04253,7.53011 h 10.93647 c 7.98228,-1.92447 8.06622,-5.12975 9.81871,-8.06446 V 77.7385 L 93.20753,60.27191 89.56727,63.91217 104.3955,77.27095 74.13788,77.60492 Z"/><path style="fill:#e63259;fill-opacity:1;fill-rule:evenodd;stroke:#029dd3;stroke-width:2;stroke-linecap:round;stroke-linejoin:round;stroke-miterlimit:3;stroke-dasharray:none;stroke-opacity:1" id="path16544" d="m 75.20849,81.41217 h -3.2729 v 9.08397 c -2.75404,3.28263 -4.64762,6.98245 -13.04253,7.53011 H 47.95659 C 39.97431,96.10178 39.89037,92.8965 38.13788,89.96179 V 77.7385 l 18.06775,-17.46659 3.64026,3.64026 -14.82823,13.35878 30.25762,0.33397 z"/><rect style="fill:#e63259;fill-opacity:1;fill-rule:evenodd;stroke:none;stroke-width:1.17849;stroke-linecap:round;stroke-linejoin:round;stroke-miterlimit:3;stroke-dasharray:none;stroke-opacity:1" id="rect16598" width="2.31" height="1.829" x="74.207" y="78.59"/><path style="opacity:1;fill:#029dd3;fill-opacity:1;fill-rule:evenodd;stroke:none;stroke-width:1.5;stroke-linecap:round;stroke-linejoin:round;stroke-miterlimit:3;stroke-dasharray:none;stroke-opacity:1" id="path17462" d="m 110.82617,78.262229 h -6.73034 L 90.210091,64.11672 93.232838,61.141203 110.89701,77.482927 Z"/><path style="opacity:1;fill:#029dd3;fill-opacity:1;fill-rule:evenodd;stroke:none;stroke-width:1.5;stroke-linecap:round;stroke-linejoin:round;stroke-miterlimit:3;stroke-dasharray:none;stroke-opacity:1" id="path17536" d="m 38.280931,78.262229 h 6.73034 L 58.89701,64.11672 55.87426,61.141203 38.210091,77.482927 Z"/></g><path style="opacity:1;fill:#000;fill-opacity:1;fill-rule:evenodd;stroke:#000;stroke-width:.1;stroke-linecap:round;stroke-linejoin:round;stroke-miterlimit:3;stroke-dasharray:none;stroke-opacity:1" id="path17601" d="m 74.242187,54.027343 0.160156,-0.328124 0.103517,0.326171 1.242954,20.574375 -2.298097,-0.441941 0.353553,-19.136078 z"/></g></svg>